<svg width="152" height="159" viewBox="0 0 152 159" fill="none" xmlns="http://www.w3.org/2000/svg">
<path d="M19.9972 56.572C29.3845 38.8343 51.3737 32.065 69.1113 41.4523L70.4495 42.1605L71.1578 40.8223C80.5451 23.0846 102.534 16.3153 120.272 25.7026C138.01 35.0899 144.779 57.0791 135.392 74.8167L100.689 140.389L35.1169 105.686C17.3792 96.2988 10.6099 74.3097 19.9972 56.572Z" fill="black" fill-opacity="0.25"/>
<path d="M16.9972 53.572C26.3845 35.8343 48.3737 29.065 66.1113 38.4523L67.4495 39.1605L68.1578 37.8223C77.5451 20.0846 99.5342 13.3153 117.272 22.7026C135.01 32.0899 141.779 54.0791 132.392 71.8167L97.6889 137.389L32.1169 102.686C14.3792 93.2988 7.60991 71.3097 16.9972 53.572Z" fill="#FF8BD8"/>
<path d="M21.0115 55.697C29.2254 40.1765 48.4659 34.2533 63.9863 42.4672L69.3391 45.3001L72.172 39.9473C80.3859 24.4268 99.6264 18.5037 115.147 26.7176C130.667 34.9314 136.59 54.1719 128.377 69.6924L95.7986 131.25L34.2412 98.6718C18.7207 90.4579 12.7976 71.2174 21.0115 55.697Z" fill="#F168C3"/>
</svg>
