<svg width="143" height="144" viewBox="0 0 143 144" fill="none" xmlns="http://www.w3.org/2000/svg">
<path d="M57.4963 18.0095C67.1106 15.1078 77.2562 20.5497 80.1581 30.1635L85.3385 47.3279L102.288 42.2125L102.738 42.0827C112.217 39.482 122.093 44.9022 124.95 54.3665L125.818 57.2456L125.828 57.2828L125.831 57.2927L126.048 58.0829L126.059 58.1197L126.063 58.1385C128.298 67.1776 123.316 76.466 114.549 79.6048L114.532 79.6132L114.495 79.6243L113.717 79.8808L113.707 79.8838L113.67 79.8963L96.7126 85.0143L102.463 104.067L102.473 104.104L102.476 104.114L102.692 104.904L102.704 104.941L102.708 104.96C105.017 114.3 99.6206 123.909 90.3064 126.72L87.0054 127.717C77.5413 130.573 67.562 125.344 64.4848 116.01L64.3437 115.563L58.5959 96.5184L41.2164 101.764C31.7524 104.62 21.7731 99.3909 18.6957 90.0567L18.5546 89.6097L17.6882 86.7391C14.7865 77.1248 20.2284 66.9792 29.8422 64.0773L47.2218 58.832L42.0413 41.6676C39.14 32.0536 44.5812 21.9076 54.1953 19.0058L57.4963 18.0095Z" fill="black" fill-opacity="0.25"/>
<path d="M55.4963 16.0095C65.1106 13.1078 75.2562 18.5497 78.1581 28.1635L83.3385 45.3279L100.288 40.2125L100.738 40.0827C110.217 37.482 120.093 42.9022 122.95 52.3665L123.818 55.2456L123.828 55.2828L123.831 55.2927L124.048 56.0829L124.059 56.1197L124.063 56.1385C126.298 65.1776 121.316 74.466 112.549 77.6048L112.532 77.6132L112.495 77.6243L111.717 77.8808L111.707 77.8838L111.67 77.8963L94.7126 83.0143L100.463 102.067L100.473 102.104L100.476 102.114L100.692 102.904L100.704 102.941L100.708 102.96C103.017 112.3 97.6206 121.909 88.3064 124.72L85.0054 125.717C75.5413 128.573 65.562 123.344 62.4848 114.01L62.3437 113.563L56.5959 94.5184L39.2164 99.7637C29.7524 102.62 19.7731 97.3909 16.6957 88.0567L16.5546 87.6097L15.6882 84.7391C12.7865 75.1248 18.2284 64.9792 27.8422 62.0773L45.2218 56.832L40.0413 39.6676C37.14 30.0536 42.5812 19.9076 52.1953 17.0058L55.4963 16.0095Z" fill="#F7CEE1"/>
<path d="M57.0274 21.0827C63.8397 19.0267 71.0286 22.8824 73.0848 29.6947L79.7964 51.9323L101.819 45.2857C108.631 43.2298 115.82 47.0853 117.876 53.8976L118.743 56.7683C120.798 63.5804 116.943 70.7696 110.131 72.8257L88.1083 79.4723L95.3872 103.59C97.443 110.402 93.5875 117.591 86.7752 119.647L83.4742 120.643C76.6619 122.699 69.473 118.844 67.4168 112.031L60.1379 87.9141L37.6852 94.6906C30.873 96.7464 23.684 92.8906 21.6277 86.0786L20.7613 83.208C18.7053 76.3956 22.561 69.2067 29.3733 67.1505L51.826 60.374L45.1145 38.1364C43.0586 31.3241 46.9141 24.1351 53.7264 22.079L57.0274 21.0827Z" fill="#F7CEE1"/>
</svg>
