<svg width="114" height="114" viewBox="0 0 114 114" fill="none" xmlns="http://www.w3.org/2000/svg">
<path d="M40.9797 27.5585C41.1013 20.0813 50.8373 17.2894 54.9027 23.5662L65.5267 39.9698C65.801 40.3933 66.268 40.6533 66.7725 40.6615L86.3134 40.9786C93.7911 41.0998 96.583 50.8363 90.3058 54.9016L73.9022 65.5256C73.4789 65.7999 73.2201 66.2667 73.2118 66.7711L72.8947 86.312C72.7735 93.7897 63.0371 96.5815 58.9718 90.3043L48.3478 73.9007C48.0734 73.4772 47.6055 73.219 47.1009 73.2108L27.56 72.8937C20.0827 72.7722 17.2911 63.0362 23.5677 58.9707L39.9712 48.3467C40.3948 48.0724 40.6544 47.604 40.6626 47.0994L40.9797 27.5585Z" fill="#FFB9E7"/>
<path d="M44.0071 27.6095C44.0798 23.1229 49.9219 21.4477 52.3611 25.214L62.9848 41.6179C63.8078 42.8886 65.2099 43.6658 66.7237 43.6903L86.2647 44.0071C90.7513 44.0798 92.4265 49.9219 88.6602 52.3611L72.2563 62.9848C70.9855 63.8078 70.2083 65.2099 70.1838 66.7237L69.8671 86.2647C69.7944 90.7513 63.9523 92.4265 61.5131 88.6602L50.8893 72.2563C50.0663 70.9855 48.6643 70.2084 47.1505 70.1838L27.6095 69.8671C23.1228 69.7944 21.4477 63.9523 25.214 61.5131L41.6179 50.8893C42.8886 50.0663 43.6658 48.6643 43.6903 47.1505L44.0071 27.6095Z" fill="#FFA1DF"/>
</svg>
