<svg width="298" height="298" viewBox="0 0 298 298" fill="none" xmlns="http://www.w3.org/2000/svg">
<path d="M112.424 39.1443C113.379 36.0217 117.266 34.9067 119.731 37.0491L119.972 37.2737L156.553 73.795C157.051 74.2924 157.827 74.3808 158.424 74.0082L202.285 46.6519L202.57 46.4871C205.549 44.9027 209.228 47.0496 209.231 50.502L209.273 102.194C209.273 102.898 209.759 103.509 210.445 103.668L260.804 115.338C264.276 116.143 265.511 120.451 262.993 122.973L226.47 159.555C225.973 160.053 225.885 160.828 226.257 161.426L253.615 205.285C255.501 208.309 253.328 212.228 249.764 212.231L198.071 212.274C197.367 212.275 196.757 212.761 196.598 213.447L184.929 263.805C184.124 267.276 179.817 268.511 177.295 265.994L140.711 229.472C140.212 228.974 139.437 228.886 138.84 229.259L94.9813 256.614C91.9574 258.5 88.0384 256.328 88.0354 252.764L87.9907 201.072C87.9901 200.368 87.5043 199.757 86.8184 199.598L36.4633 187.93C32.9913 187.125 31.7559 182.817 34.2739 180.294L70.7939 143.713C71.2913 143.215 71.3796 142.44 71.0071 141.843L43.6521 97.9811C41.8254 95.0517 43.8063 91.2824 47.1719 91.0468L47.5023 91.0352L99.1924 90.9926C99.8964 90.9921 100.507 90.5063 100.666 89.8205L112.338 39.4626L112.424 39.1443Z" fill="black" fill-opacity="0.25"/>
<path d="M112.424 36.1443C113.379 33.0217 117.266 31.9067 119.731 34.0491L119.972 34.2737L156.553 70.795C157.051 71.2924 157.827 71.3808 158.424 71.0082L202.285 43.6519L202.57 43.4871C205.549 41.9027 209.228 44.0496 209.231 47.502L209.273 99.1939C209.273 99.898 209.759 100.509 210.445 100.668L260.804 112.338C264.276 113.143 265.511 117.451 262.993 119.973L226.47 156.555C225.973 157.053 225.885 157.828 226.257 158.426L253.615 202.285C255.501 205.309 253.328 209.228 249.764 209.231L198.071 209.274C197.367 209.275 196.757 209.761 196.598 210.447L184.929 260.805C184.124 264.276 179.817 265.511 177.295 262.994L140.711 226.472C140.212 225.974 139.437 225.886 138.84 226.259L94.9813 253.614C91.9574 255.5 88.0384 253.328 88.0354 249.764L87.9907 198.072C87.9901 197.368 87.5043 196.757 86.8184 196.598L36.4633 184.93C32.9913 184.125 31.7559 179.817 34.2739 177.294L70.7939 140.713C71.2913 140.215 71.3796 139.44 71.0071 138.843L43.6521 94.9811C41.8254 92.0517 43.8063 88.2824 47.1719 88.0468L47.5023 88.0352L99.1924 87.9926C99.8964 87.9921 100.507 87.5063 100.666 86.8205L112.338 36.4626L112.424 36.1443Z" fill="#91B8FF"/>
<path d="M115.288 37.1461C115.556 35.9887 116.992 35.5771 117.833 36.4164L156.116 74.6365C156.615 75.1339 157.39 75.2222 157.987 74.8497L203.888 46.2211C204.896 45.5924 206.202 46.3165 206.203 47.5045L206.248 101.601C206.249 102.305 206.735 102.916 207.42 103.075L260.12 115.288C261.278 115.556 261.689 116.992 260.85 117.832L222.63 156.116C222.132 156.615 222.044 157.39 222.417 157.987L251.045 203.888C251.674 204.896 250.95 206.202 249.762 206.203L195.665 206.248C194.961 206.249 194.351 206.734 194.192 207.42L181.979 260.12C181.71 261.277 180.275 261.689 179.434 260.85L141.15 222.63C140.652 222.132 139.876 222.044 139.279 222.417L93.3787 251.045C92.3707 251.674 91.0644 250.95 91.0634 249.762L91.0183 195.665C91.0177 194.961 90.5319 194.35 89.8461 194.191L37.1462 181.978C35.9889 181.71 35.5772 180.275 36.4165 179.434L74.6366 141.15C75.134 140.652 75.2224 139.876 74.8498 139.279L46.2213 93.3786C45.5926 92.3706 46.3167 91.0643 47.5047 91.0633L101.601 91.0182C102.305 91.0176 102.916 90.5318 103.075 89.8459L115.288 37.1461Z" fill="#6B9FFF"/>
<path d="M141.14 89.6368C148.614 97.0978 160.244 98.4234 169.204 92.835L182.722 84.4026C183.73 83.7738 185.036 84.4979 185.037 85.6859L185.051 101.619C185.06 112.179 192.347 121.34 202.635 123.724L218.155 127.321C219.312 127.589 219.724 129.025 218.885 129.866L207.629 141.14C200.168 148.614 198.843 160.244 204.431 169.204L212.862 182.723C213.491 183.731 212.767 185.037 211.579 185.038L195.647 185.051C185.417 185.06 176.5 191.899 173.785 201.68L173.542 202.635L169.945 218.155C169.677 219.312 168.241 219.724 167.4 218.885L156.126 207.629L155.413 206.948C148.17 200.313 137.46 199.093 128.909 203.928L128.062 204.431L114.542 212.863C113.534 213.491 112.228 212.767 112.227 211.579L112.215 195.647C112.206 185.087 104.918 175.926 94.6308 173.542L79.111 169.945C77.9537 169.677 77.542 168.241 78.3813 167.4L89.6367 156.126C97.0978 148.652 98.4235 137.022 92.8349 128.062L84.4022 114.543C83.7734 113.535 84.4976 112.228 85.6856 112.227L101.619 112.215C112.179 112.206 121.34 104.919 123.724 94.6309L127.321 79.111C127.589 77.9538 129.025 77.5421 129.866 78.3814L141.14 89.6368Z" fill="#88B2FF"/>
</svg>
