<svg width="168" height="191" viewBox="0 0 168 191" fill="none" xmlns="http://www.w3.org/2000/svg">
<path d="M150.035 37.6038C158.859 42.3815 162.138 53.4073 157.361 62.231C144.796 85.4382 132.004 100.069 118.267 109.02C104.3 118.12 91.1086 120.145 81.0814 121.33C70.3338 122.6 65.8571 122.961 61.3526 125.437C57.702 127.444 51.9966 132.22 45.3337 147.293C41.2765 156.47 30.5477 160.62 21.3703 156.563C12.1929 152.506 8.04161 141.777 12.0986 132.6C20.6679 113.215 30.8206 100.755 43.8494 93.5932C56.0242 86.9012 69.0485 86.1623 76.818 85.2443C85.3082 84.2412 91.6516 82.9911 98.4307 78.5741C105.44 74.0073 114.606 64.8785 125.407 44.9301C130.184 36.1062 141.211 32.8263 150.035 37.6038Z" fill="black" fill-opacity="0.25"/>
<path d="M148.035 35.3652C156.859 40.1428 160.138 51.1686 155.361 59.9924C142.796 83.1995 130.004 97.8307 116.267 106.781C102.3 115.881 89.1086 117.907 79.0814 119.091C68.3338 120.361 63.8571 120.722 59.3526 123.198C55.702 125.205 49.9966 129.982 43.3337 145.054C39.2765 154.231 28.5477 158.381 19.3703 154.324C10.1929 150.267 6.04161 139.539 10.0986 130.361C18.6679 110.976 28.8206 98.516 41.8494 91.3545C54.0242 84.6626 67.0485 83.9237 74.818 83.0057C83.3082 82.0026 89.6516 80.7524 96.4307 76.3355C103.44 71.7687 112.606 62.6399 123.407 42.6915C128.184 33.8676 139.211 30.5876 148.035 35.3652Z" fill="#EE8172"/>
</svg>
